<?xml version="1.0" encoding="UTF-8"?>
<!DOCTYPE svg PUBLIC "-//W3C//DTD SVG 1.1//EN" "http://www.w3.org/Graphics/SVG/1.1/DTD/svg11.dtd">
<!-- Creator: CorelDRAW 2021 (64-Bit) -->
<svg xmlns="http://www.w3.org/2000/svg" xml:space="preserve" width="62.0545mm" height="15.0001mm" version="1.1" style="shape-rendering:geometricPrecision; text-rendering:geometricPrecision; image-rendering:optimizeQuality; fill-rule:evenodd; clip-rule:evenodd"
viewBox="0 0 2442.71 590.46"
 xmlns:xlink="http://www.w3.org/1999/xlink"
 xmlns:xodm="http://www.corel.com/coreldraw/odm/2003">
 <defs>
  <style type="text/css">
   <![CDATA[
    .fil0 {fill:#E6B012;fill-rule:nonzero}
    .fil1 {fill:#002469;fill-rule:nonzero}
   ]]>
  </style>
 </defs>
 <g id="Layer_x0020_1">
  <metadata id="CorelCorpID_0Corel-Layer"/>
  <g id="_2440838952992">
   <path class="fil0" d="M1347.1 346.92c-15.94,3.62 -30.57,5.4 -43.94,5.4 -5.04,0 -9.68,-0.24 -14.23,-0.64 -4.36,-0.42 -9.26,-1.24 -14.36,-2.75 -5.14,-1.36 -9.54,-3.22 -13.28,-5.4 -3.75,-2.29 -6.85,-5.5 -9.32,-9.58 -2.32,-4.03 -3.65,-8.57 -3.65,-13.92l0 -56.27c0,-6.94 1.86,-12.87 5.44,-17.73 3.59,-4.75 8.49,-8.26 14.61,-10.5 6.09,-2.26 11.88,-3.72 17.4,-4.58 5.5,-0.92 11.29,-1.29 17.39,-1.29 14.73,0 28.42,0.89 41.17,2.89l0 13.69c-4.64,-1 -11.32,-1.98 -20,-3.01 -8.73,-0.85 -15.57,-1.32 -20.75,-1.32 -25.07,0 -37.63,7.22 -37.63,21.65l0 56.17c0,3.99 1.21,7.49 3.6,10.34 2.37,2.89 5.59,5.09 9.7,6.4 4.03,1.47 8.12,2.4 12.08,2.92 3.96,0.58 8.36,0.79 12.93,0.79 8.23,0 17.02,-1.05 26.3,-3.2l0 -41.67 -27.91 0 0 -12.47 44.44 0 0 64.08z"/>
   <polygon class="fil0" points="1479.01,350.54 1397.17,350.54 1397.17,231.5 1477.22,231.5 1477.22,244.02 1415.01,244.02 1415.01,282.86 1471.15,282.86 1471.15,295.31 1415.01,295.31 1415.01,338.04 1479.01,338.04 "/>
   <path class="fil0" d="M1617.54 350.54l-21.85 0 -34.08 -50.74 -17.33 0 0 50.74 -17.73 0 0 -119.04 41.78 0c14.98,0 25.63,1.46 32.13,4.44 6.5,3.02 9.83,9.31 9.83,18.82l0 20.57c0,7.32 -3.08,12.87 -9.1,16.58 -5.94,3.71 -13.3,5.65 -21.79,5.65l38.13 52.98zm-25.13 -77.41l0 -16.47c0,-8.96 -7.68,-13.5 -23.15,-13.5l-24.98 0 0 44.82 23.37 0c8.36,0 14.68,-1.05 18.69,-3.1 4.03,-2.14 6.07,-6.01 6.07,-11.76z"/>
   <path class="fil0" d="M1763.16 350.54l-18.44 0 -13.65 -36.13 -50.95 0 -13.38 36.13 -17.64 0 47.35 -119.04 20.55 0 46.15 119.04zm-36.43 -48.48l-20.24 -53.72 -1.61 0 -20.11 53.72 41.97 0z"/>
   <path class="fil0" d="M1901.64 265.55l0 52.77c0,21.45 -16.59,32.22 -49.82,32.22l-47.55 0 0 -119.04 47.35 0c33.43,0 50.02,11.34 50.02,34.05zm-16.95 52.31l0 -52.46c0,-4.51 -0.93,-8.26 -2.85,-11.25 -1.81,-3.04 -4.4,-5.24 -7.81,-6.6 -3.28,-1.47 -6.75,-2.46 -10.4,-2.99 -3.47,-0.47 -7.61,-0.78 -12.19,-0.78l-29.34 0 0 94.61 28.41 0c22.72,0 34.18,-6.79 34.18,-20.54z"/>
   <path class="fil0" d="M2048.78 263.56l0 56.48c0,6.49 -1.54,12.04 -4.64,16.56 -3.09,4.54 -7.43,7.85 -12.76,9.94 -5.37,2.17 -10.64,3.7 -15.9,4.54 -5.32,0.87 -11.08,1.25 -17.15,1.25 -33.18,0 -49.89,-10.68 -49.89,-32.29l0 -56.27c0,-22.8 16.72,-34.1 49.89,-34.1 33.62,0 50.45,11.22 50.45,33.9zm-17.21 56.33l0 -56.69c0,-14.69 -11.03,-21.97 -33.07,-21.97 -4.64,0 -8.66,0.26 -12.32,0.79 -3.46,0.53 -6.86,1.67 -10.21,3.09 -3.35,1.53 -5.87,3.82 -7.68,6.79 -1.79,3 -2.78,6.75 -2.78,11.3l0 56.69c0,13.61 11.08,20.54 33.17,20.54 21.91,0 32.87,-6.93 32.87,-20.54z"/>
   <path class="fil0" d="M2190.28 350.54l-21.86 0 -34.1 -50.74 -17.26 0 0 50.74 -17.71 0 0 -119.04 41.71 0c14.99,0 25.64,1.46 32.14,4.44 6.5,3.02 9.7,9.31 9.7,18.82l0 20.57c0,7.32 -2.9,12.87 -8.9,16.58 -6.01,3.71 -13.37,5.65 -21.91,5.65l38.19 52.98zm-25.19 -77.41l0 -16.47c0,-8.96 -7.68,-13.5 -23.15,-13.5l-24.89 0 0 44.82 23.33 0c8.36,0 14.61,-1.05 18.69,-3.1 4.03,-2.14 6.01,-6.01 6.01,-11.76z"/>
   <polygon class="fil0" points="2316.25,350.54 2234.54,350.54 2234.54,231.5 2314.46,231.5 2314.46,244.02 2252.3,244.02 2252.3,282.86 2308.45,282.86 2308.45,295.31 2252.3,295.31 2252.3,338.04 2316.25,338.04 "/>
   <path class="fil0" d="M2442.71 310.15l0 8.68c0,12.72 -3.59,21.4 -10.77,26.33 -7.31,4.81 -18.44,7.17 -33.73,7.17 -9.78,0 -21.91,-0.94 -36.34,-2.82l0 -14.86c14.43,3.01 26.92,4.48 37.4,4.48 8.47,0 14.92,-0.87 19.25,-2.87 4.59,-1.86 6.88,-5.66 6.88,-11.34l0 -15.46c0,-5.05 -1.55,-8.59 -4.46,-10.76 -2.85,-2.19 -7.93,-3.24 -15.47,-3.24l-13.93 0c-11.89,0 -20.32,-2.46 -25.01,-7.21 -4.71,-4.82 -7.05,-11.93 -7.05,-21.33l0 -9.58c0,-9.42 3.28,-16.46 10.03,-20.93 6.68,-4.5 18.94,-6.75 36.7,-6.75 8.54,0 18.76,0.64 30.64,2.04l0 13.33c-13.56,-2.08 -24.14,-3.13 -31.82,-3.13 -11.44,0 -18.94,1.1 -22.72,3.39 -3.76,2.32 -5.63,6.08 -5.63,11.53l0 13.54c0,4.22 1.49,7.15 4.39,9.09 2.92,1.96 8.18,2.83 15.54,2.83l14.43 0c12.37,0 20.73,2.25 25.07,6.68 4.4,4.5 6.62,11.57 6.62,21.18z"/>
   <path class="fil1" d="M851.72 282.61c-12.62,-12.82 -33.77,-19.25 -63.32,-19.25l-30.42 0c-22.39,0 -33.58,-7.92 -33.58,-23.44l0 -21.02c0,-9.58 3.78,-16.3 11.36,-20.25 7.51,-3.91 21.29,-5.97 41.31,-5.97 12.51,0 34.73,2.15 65.64,6.18l15.45 -51.05c-33.34,-3.98 -59.64,-6.01 -79.24,-6.01 -40.15,0 -69.54,6.24 -87.9,18.56 -18.32,12.4 -27.42,31.44 -27.42,57.06l0 22.08c0,51.93 27.8,77.98 83.39,77.98l29.68 0c13.22,0 22.13,2.85 26.47,8.43 4.48,5.71 6.62,12.93 6.62,21.87l0 19.14c0,20.61 -16.85,30.85 -50.7,30.85 -14.94,0 -40.3,-3.25 -74.93,-9.26l-15.47 51.95c35.57,5.38 65.49,8.15 89.69,8.15 17.43,0 32.37,-1.25 44.99,-3.91 12.61,-2.57 24.24,-6.96 34.98,-13.23 10.61,-6.26 18.69,-15.43 24.05,-27.51 5.51,-12.15 8.29,-27.04 8.29,-44.8l0 -19.71c0,-25.04 -6.32,-44.02 -18.94,-56.84z"/>
   <path class="fil1" d="M1097.22 160.36c-15.47,-9.25 -41.1,-14.01 -77,-14.01l-106.69 0 0 297.7 60.73 0 0 -246.8 43.2 0c16.97,0 28.45,1.6 34.7,4.85 6.25,3.18 9.35,9.51 9.35,18.98l0 47.81c0,10.61 -3.25,18.23 -9.75,22.63 -6.47,4.39 -17.71,6.65 -33.49,6.65l-9.8 0 -14.58 49.12 19.35 0c38.19,0 65.64,-5.4 82.21,-16.01 16.68,-10.78 24.94,-30.76 24.94,-60.23l0 -56.37c0,-26.88 -7.64,-44.98 -23.15,-54.34z"/>
   <polygon class="fil1" points="173.9,329.71 255.61,0 -0,147.61 -0,442.96 255.61,590.46 254.99,329.67 "/>
   <polygon class="fil0" points="337.41,260.63 255.62,590.46 511.35,442.96 511.35,147.62 255.62,0 256.38,260.74 "/>
  </g>
 </g>
</svg>
